{
    "asset" : {
        "generator" : "Khronos glTF Blender I/O v3.3.27",
        "version" : "2.0"
    },
    "scene" : 0,
    "scenes" : [
        {
            "name" : "Scene",
            "nodes" : [
                8
            ]
        }
    ],
    "nodes" : [
        {
            "extras" : {
                "type" : "hslider",
                "name" : "X Value",
                "defState" : 0,
                "minRange" : 0,
                "maxRange" : 1
            },
            "name" : "Horizontal Slider.001",
            "translation" : [
                0.09132300317287445,
                0.004999999888241291,
                -0.06353235989809036
            ]
        },
        {
            "extras" : {
                "type" : "hslider",
                "name" : "X Force",
                "defState" : 0,
                "minRange" : 0,
                "maxRange" : 1
            },
            "name" : "Horizontal Slider.002",
            "translation" : [
                0.09132300317287445,
                0.004999999888241291,
                -0.032351166009902954
            ]
        },
        {
            "extras" : {
                "type" : "button",
                "name" : "Switch 1",
                "defState" : 0,
                "minRange" : 0,
                "maxRange" : 1
            },
            "name" : "Simple Button.001",
            "translation" : [
                -0.10645999759435654,
                0.004999999888241291,
                -0.05858900025486946
            ]
        },
        {
            "extras" : {
                "type" : "button",
                "name" : "Switch 2",
                "defState" : 0,
                "minRange" : 0,
                "maxRange" : 1
            },
            "name" : "Simple Button.002",
            "translation" : [
                -0.06539207696914673,
                0.004999999888241291,
                -0.05858900025486946
            ]
        },
        {
            "extras" : {
                "type" : "button",
                "name" : "Switch 3",
                "defState" : 0,
                "minRange" : 0,
                "maxRange" : 1
            },
            "name" : "Simple Button.003",
            "translation" : [
                -0.02432415261864662,
                0.004999999888241291,
                -0.05858900025486946
            ]
        },
        {
            "extras" : {
                "type" : "button",
                "name" : "Switch 4",
                "defState" : 0,
                "minRange" : 0,
                "maxRange" : 1
            },
            "name" : "Simple Button.004",
            "translation" : [
                0.016196198761463165,
                0.004999999888241291,
                -0.05858900025486946
            ]
        },
        {
            "extras" : {
                "type" : "vslider",
                "name" : "Y Value",
                "defState" : 1,
                "minRange" : 0,
                "maxRange" : 1
            },
            "name" : "Vertical Slider.001",
            "translation" : [
                0.07040879130363464,
                0.004999999888241291,
                0.030188139528036118
            ]
        },
        {
            "extras" : {
                "type" : "vslider",
                "name" : "Y Value",
                "defState" : 1,
                "minRange" : 0,
                "maxRange" : 1
            },
            "name" : "Vertical Slider.002",
            "translation" : [
                0.10995566844940186,
                0.004999999888241291,
                0.030188139528036118
            ]
        },
        {
            "children" : [
                0,
                1,
                2,
                3,
                4,
                5,
                6,
                7
            ],
            "extras" : {
                "roughness" : 0.5,
                "metalness" : 0.75,
                "albedo" : [
                    0.044472258538007736,
                    0.044472258538007736,
                    0.044472258538007736,
                    0.10000000149011612
                ],
                "activeColor" : [
                    0.29999998211860657,
                    0.001125437207520008,
                    0.0
                ]
            },
            "mesh" : 0,
            "name" : "panel"
        }
    ],
    "materials" : [
        {
            "doubleSided" : true,
            "name" : "Material",
            "pbrMetallicRoughness" : {
                "baseColorFactor" : [
                    0.1481827050447464,
                    0.1481827050447464,
                    0.1481827050447464,
                    1
                ],
                "metallicFactor" : 0.7545454502105713,
                "roughnessFactor" : 0
            }
        }
    ],
    "meshes" : [
        {
            "name" : "panel",
            "primitives" : [
                {
                    "attributes" : {
                        "POSITION" : 0,
                        "NORMAL" : 1,
                        "TEXCOORD_0" : 2
                    },
                    "indices" : 3,
                    "material" : 0
                }
            ]
        }
    ],
    "accessors" : [
        {
            "bufferView" : 0,
            "componentType" : 5126,
            "count" : 88,
            "max" : [
                0.15000000596046448,
                0.004999999888241291,
                0.10000000894069672
            ],
            "min" : [
                -0.15000000596046448,
                -0.004999999888241291,
                -0.10000000894069672
            ],
            "type" : "VEC3"
        },
        {
            "bufferView" : 1,
            "componentType" : 5126,
            "count" : 88,
            "type" : "VEC3"
        },
        {
            "bufferView" : 2,
            "componentType" : 5126,
            "count" : 88,
            "type" : "VEC2"
        },
        {
            "bufferView" : 3,
            "componentType" : 5123,
            "count" : 228,
            "type" : "SCALAR"
        }
    ],
    "bufferViews" : [
        {
            "buffer" : 0,
            "byteLength" : 1056,
            "byteOffset" : 0,
            "target" : 34962
        },
        {
            "buffer" : 0,
            "byteLength" : 1056,
            "byteOffset" : 1056,
            "target" : 34962
        },
        {
            "buffer" : 0,
            "byteLength" : 704,
            "byteOffset" : 2112,
            "target" : 34962
        },
        {
            "buffer" : 0,
            "byteLength" : 456,
            "byteOffset" : 2816,
            "target" : 34963
        }
    ],
    "buffers" : [
        {
            "byteLength" : 3272,
            "uri" : "Panel_v001.bin"
        }
    ]
}
